<?xml version="1.0" encoding="UTF-8" standalone="no"?>
<!-- Created with Inkscape (http://www.inkscape.org/) -->

<svg
   xmlns:dc="http://purl.org/dc/elements/1.1/"
   xmlns:cc="http://creativecommons.org/ns#"
   xmlns:rdf="http://www.w3.org/1999/02/22-rdf-syntax-ns#"
   xmlns:svg="http://www.w3.org/2000/svg"
   xmlns="http://www.w3.org/2000/svg"
   xmlns:sodipodi="http://sodipodi.sourceforge.net/DTD/sodipodi-0.dtd"
   xmlns:inkscape="http://www.inkscape.org/namespaces/inkscape"
   width="340"
   height="220.3026"
   viewBox="0 0 340 220.3026"
   id="svg3030"
   version="1.1"
   inkscape:version="0.48.2 r9819"
   sodipodi:docname="New document 2">
  <defs
     id="defs3032" />
  <sodipodi:namedview
     id="base"
     pagecolor="#ffffff"
     bordercolor="#666666"
     borderopacity="1.0"
     inkscape:pageopacity="0.0"
     inkscape:pageshadow="2"
     inkscape:zoom="0.35"
     inkscape:cx="-374.99999"
     inkscape:cy="208.57146"
     inkscape:document-units="px"
     inkscape:current-layer="layer1"
     showgrid="false"
     fit-margin-top="10"
     fit-margin-left="10"
     fit-margin-right="10"
     fit-margin-bottom="10"
     inkscape:window-width="1920"
     inkscape:window-height="1023"
     inkscape:window-x="0"
     inkscape:window-y="26"
     inkscape:window-maximized="1" />
  <metadata
     id="metadata3035">
    <rdf:RDF>
      <cc:Work
         rdf:about="">
        <dc:format>image/svg+xml</dc:format>
        <dc:type
           rdf:resource="http://purl.org/dc/dcmitype/StillImage" />
        <dc:title></dc:title>
      </cc:Work>
    </rdf:RDF>
  </metadata>
  <g
     inkscape:label="Layer 1"
     inkscape:groupmode="layer"
     id="layer1"
     transform="translate(-232.85714,-406.3453)">
    <path
       clip-rule="evenodd"
       d="m 523.71454,442.05319 c -3.3113,-0.11926 -6.4507,1.05056 -8.8499,3.30076 -2.3993,2.2502 -3.8147,5.2984 -3.9147,8.59916 -0.2297,6.82075 5.1108,12.55937 11.9158,12.81017 3.3095,0.1 6.4647,-1.06985 8.878,-3.32005 2.4098,-2.26072 3.7953,-5.31068 3.9006,-8.59916 0.2297,-6.819 -5.109,-12.54885 -11.9298,-12.79088 z m 2.0205,13.51171 c -3.0307,0 -5.4791,-1.63985 -5.4791,-3.64977 0,-2.02922 2.4484,-3.6603 5.4791,-3.6603 3.0306,0 5.486,1.63108 5.486,3.6603 0,2.00992 -2.4571,3.64977 -5.486,3.64977 z m 27.1532,15.79875 c 0.805,-0.53142 1.3961,-0.97164 1.6451,-1.06985 l 0.2683,-0.41918 c -0.6805,-4.27941 -7.0592,-25.02929 -11.8841,-30.01901 -1.3294,-1.35924 -2.394,-2.69919 -4.5495,-3.96021 -17.4544,-10.17062 -58.863,-16.30912 -60.8027,-16.58974 l -0.3297,0.0912 -0.1246,0.29991 c 0,0 -0.1596,8.57987 -0.1841,9.53923 -4.2286,-1.42062 -34.9719,-11.35096 -63.7913,-12.35066 -24.44,-0.85939 -60.0328,-4.01984 -107.1958,24.98019 l -1.3943,0.86815 c -22.1898,13.84145 -37.5097,30.90998 -45.5178,50.73909 -2.5116,6.24022 -5.8895,20.32019 -2.5414,33.56882 1.4417,5.79123 4.1304,11.61053 7.7556,16.81949 8.194,11.77013 21.9442,19.58006 36.7486,20.89896 20.9042,1.86961 36.7327,-7.51879 42.3626,-25.09945 3.8708,-12.12968 0,-29.92781 -14.8394,-39.00753 -12.07,-7.39075 -25.0486,-5.71056 -32.5779,-0.7296 -6.5313,4.33027 -10.2302,11.05982 -10.1653,18.45056 0.1508,13.11009 11.4439,20.07816 19.5643,20.09921 2.3589,0 4.7284,-0.41041 7.3995,-1.28032 0.9506,-0.28939 1.845,-0.64893 2.8307,-1.25927 l 0.3087,-0.18065 0.1947,-0.12978 -0.065,0.0386 c 1.8503,-1.26102 2.964,-3.31128 2.964,-5.51062 0,-0.59981 -0.084,-1.2084 -0.2561,-1.8205 -0.9593,-3.32005 -4.239,-5.32822 -7.638,-4.70911 l -0.4595,0.10874 -0.6209,0.18942 -0.9015,0.31043 c -1.8696,0.45951 -3.2692,0.49985 -3.5691,0.51038 -0.9506,-0.0614 -5.6246,-1.46097 -5.6246,-6.58048 v -0.0702 c 0,-1.88013 0.7542,-3.19903 1.1698,-3.91986 1.454,-2.28002 5.4352,-4.51794 10.8143,-4.04966 7.0593,0.61034 12.149,4.23031 15.5199,11.05982 3.1289,6.34896 2.3098,14.15888 -2.1099,19.87997 -4.3899,5.66846 -12.2051,8.07826 -22.5985,6.9593 -10.481,-1.1593 -19.3397,-7.19081 -24.3031,-16.57921 -4.8565,-9.17793 -5.1213,-20.05885 -0.6858,-28.41774 10.6091,-20.02905 30.6486,-19.82034 41.6366,-17.92091 16.26,2.8202 34.7579,17.81919 41.3191,35.13852 1.0593,2.76057 1.5995,4.94938 2.0713,6.95053 l 0.7085,2.99033 18.3699,8.96923 0.2403,0.18064 0.4455,-0.0403 0.081,-0.52966 c -0.114,-0.4104 -0.3806,-0.78924 -0.805,-5.92979 -0.3491,-4.56178 -1.0594,-17.05099 5.2282,-23.24035 2.4414,-2.41857 6.1613,-4.57757 9.099,-5.26859 12.0402,-2.94122 26.1588,-0.912 39.5074,14.53947 6.9102,7.98005 10.2794,11.6193 11.9701,13.24863 l 0.5893,0.53142 0.6945,0.51914 c 0.5542,0.30167 22.9545,10.62136 22.9545,10.62136 l 0.4612,-0.11049 0.01,-0.4788 c -0.1491,-0.17013 -14.1992,-18.32781 -11.6982,-33.27943 1.9696,-11.90869 11.4474,-10.83007 24.5575,-9.34981 4.2794,0.49984 9.1516,1.05932 14.1957,1.17157 14.0835,0.0895 29.2544,-2.51152 38.6042,-6.60152 6.049,-2.62903 9.9093,-4.37938 12.3278,-6.57871 0.8699,-0.72084 1.3207,-1.89066 1.7907,-3.14993 l 0.3297,-0.83133 c 0.3911,-1.02074 0.9664,-3.17097 1.219,-4.34957 0.1017,-0.51914 0.1613,-1.06809 -0.2087,-1.35923 l -1.2944,0.24027 c -4.1058,2.47119 -14.3693,7.15048 -23.9647,7.35042 -11.9139,0.24028 -35.8979,-11.9806 -38.3989,-13.28021 l -0.2403,-0.27886 c -0.5893,-1.43992 -4.19,-9.94963 -4.9599,-11.74909 17.2702,11.37903 31.594,17.66836 42.5591,18.63824 12.2068,1.08739 21.7215,-5.57376 25.7852,-8.42202 z m -47.3471,-17.4386 c 0.1753,-4.73016 2.1554,-9.12006 5.6141,-12.34014 3.4603,-3.23061 7.9747,-4.90028 12.7084,-4.74945 9.7602,0.34902 17.4298,8.58864 17.0948,18.33833 -0.1841,4.73016 -2.1642,9.12006 -5.6141,12.32962 -3.4603,3.2499 -7.9642,4.91957 -12.7189,4.75997 -9.7497,-0.35954 -17.4106,-8.57987 -17.0843,-18.33833 z"
       id="Geeko"
       style="fill:#73ba25;fill-opacity:1;fill-rule:evenodd"
       inkscape:connector-curvature="0" />
    <path
       d="m 376.83604,556.35906 c -7.7836,0 -12.0648,6.58047 -12.0648,11.12998 v 5.84034 c 0,6.69974 5.4738,10.85112 10.5495,10.85112 h 17.8192 c 2.2449,0 2.7149,1.46973 2.7149,2.70971 v 3.76903 c 0,0.39988 -0.081,4.01984 -2.7149,4.01984 h -24.3032 c -2.4151,0 -4.1602,1.6802 -4.1602,3.97951 v 1.04179 c 0,2.29054 1.7451,3.96021 4.1602,3.96021 h 25.6238 c 6.698,0 11.0195,-4.66 11.0195,-11.87888 v -6.30161 c 0,-6.77865 -4.8705,-9.80932 -9.7058,-9.80932 h -17.5334 c -2.6395,0 -3.8356,-1.9801 -3.8356,-3.37968 v -3.47965 c 0,-2.19057 1.4644,-3.46036 4.0251,-3.46036 h 19.4081 c 2.38,0 4.1707,-1.71001 4.1707,-3.97074 v -1.04003 c 0,-2.26949 -1.8205,-3.98126 -4.2513,-3.98126 h -20.9218 z"
       id="path7"
       style="fill:#73ba25;fill-opacity:1"
       inkscape:connector-curvature="0" />
    <path
       d="m 449.69824,556.35906 c -2.301,0 -4.1548,1.86961 -4.1548,4.17067 v 29.83837 c 0,2.39051 -1.9503,4.31098 -4.311,4.31098 h -13.5451 c -2.3694,0 -4.3092,-1.92047 -4.3092,-4.31098 v -29.83837 c 0,-2.30106 -1.8696,-4.17067 -4.1689,-4.17067 h -1.3101 c -2.3344,0 -4.1707,1.84155 -4.1707,4.17067 v 30.96786 c 0,7.2101 5.6737,12.44011 13.4889,12.44011 h 14.4851 c 7.8047,0 13.4749,-5.22825 13.4749,-12.44011 v -30.96786 c 0,-2.32912 -1.8293,-4.17067 -4.1602,-4.17067 h -1.3189 z"
       id="path9"
       style="fill:#73ba25;fill-opacity:1"
       inkscape:connector-curvature="0" />
    <path
       d="m 475.63084,556.35906 c -7.7801,0 -12.0736,6.58047 -12.0736,11.12998 v 5.84034 c 0,6.69974 5.4843,10.85112 10.5635,10.85112 h 17.8139 c 2.2485,0 2.7203,1.46973 2.7203,2.70971 v 3.76903 c 0,0.39988 -0.081,4.01984 -2.7203,4.01984 h -24.3137 c -2.4045,0 -4.1601,1.6802 -4.1601,3.97951 v 1.04179 c 0,2.29054 1.7556,3.96021 4.1601,3.96021 h 25.6326 c 6.6998,0 11.0406,-4.66 11.0406,-11.87888 v -6.30161 c 0,-6.77865 -4.8845,-9.80932 -9.7199,-9.80932 h -17.5333 c -2.6466,0 -3.8392,-1.9801 -3.8392,-3.37968 v -3.47965 c 0,-2.19057 1.4645,-3.46036 4.0251,-3.46036 h 19.4187 c 2.3747,0 4.1584,-1.71001 4.1584,-3.97074 v -1.04003 c 0,-2.26949 -1.8188,-3.98126 -4.2601,-3.98126 h -20.913 z"
       id="path11"
       style="fill:#73ba25;fill-opacity:1"
       inkscape:connector-curvature="0" />
    <path
       d="m 516.59564,556.35906 c -2.3098,0 -4.0549,1.71177 -4.0549,3.98126 v 39.3583 c 0,2.25897 1.7047,3.96021 3.9637,3.96021 h 31.3642 c 2.4151,0 4.1602,-1.66967 4.1602,-3.96021 v -1.04179 c 0,-2.2993 -1.7451,-3.9795 -4.1602,-3.9795 0,0 -24.5329,0 -25.6869,0 0,-1.02074 0,-9.01132 0,-10.01978 1.1435,0 18.8223,0 18.8223,0 2.4098,0 4.1602,-1.69072 4.1602,-3.98126 v -1.04004 c 0,-2.30106 -1.7504,-3.97073 -4.1602,-3.97073 0,0 -17.6788,0 -18.8223,0 0,-1.02951 0,-9.29018 0,-10.3197 1.1435,0 24.3821,0 24.3821,0 2.4063,0 4.1601,-1.65914 4.1601,-3.97073 v -1.04003 c 0,-2.30107 -1.7538,-3.98126 -4.1601,-3.98126 h -29.9682 z"
       id="path13"
       style="fill:#73ba25;fill-opacity:1"
       inkscape:connector-curvature="0" />
    <g
       id="g15"
       style="fill:#73ba25;fill-opacity:1"
       transform="matrix(1.7538571,0,0,1.7538571,-611.60275,-134.12571)">
      <path
         d="m 491.254,404.369 c -2.241,0 -4.065,1.744 -4.065,3.894 v 8.461 c 0,2.184 1.765,3.963 3.929,3.963 h 5.473 c 2.164,0 3.929,-1.779 3.929,-3.963 v -8.461 c 0,-2.149 -1.825,-3.894 -4.065,-3.894 h -5.201 z m -1.184,12.019 v -7.726 c 0,-0.906 0.744,-1.647 1.654,-1.647 h 4.264 c 0.89,0 1.648,0.758 1.648,1.647 v 7.726 c 0,0.912 -0.738,1.653 -1.648,1.653 h -4.296 c -0.912,0 -1.622,-0.725 -1.622,-1.653 z"
         id="path17"
         style="fill:#73ba25;fill-opacity:1"
         inkscape:connector-curvature="0" />
      <path
         d="m 512.91,404.271 c -1.578,0 -2.768,0.564 -3.723,1.026 -0.582,0.279 -1.086,0.52 -1.477,0.52 -0.177,0 -0.328,-0.08 -0.408,-0.211 l -0.364,-0.696 c -0.091,-0.183 -0.456,-0.541 -0.907,-0.541 h -0.541 c -0.52,0 -0.936,0.467 -0.936,1.037 v 21.461 c 0,0.673 0.531,1.203 1.203,1.203 h 0.468 c 0.667,0 1.209,-0.536 1.209,-1.203 v -7.121 c 0,-0.211 0.137,-0.439 0.276,-0.439 0.391,0 0.895,0.229 1.477,0.496 0.955,0.439 2.145,0.98 3.723,0.98 h 0.505 c 2.794,0 4.532,-1.597 4.532,-4.162 v -8.192 c 0,-2.526 -1.775,-4.157 -4.532,-4.157 h -0.505 z m -5.475,11.952 v -7.39 c 0,-1.021 0.798,-1.818 1.818,-1.818 h 3.997 c 1.021,0 1.818,0.798 1.818,1.818 v 7.39 c 0,1.003 -0.818,1.818 -1.818,1.818 h -3.997 c -1.001,0 -1.818,-0.815 -1.818,-1.818 z"
         id="path19"
         style="fill:#73ba25;fill-opacity:1"
         inkscape:connector-curvature="0" />
      <path
         d="m 526.044,404.369 c -2.241,0 -4.06,1.744 -4.06,3.894 v 8.398 c 0,2.178 1.768,4.025 3.854,4.025 h 5.647 c 0.698,0 1.203,-0.484 1.203,-1.141 v -0.37 c 0,-0.661 -0.505,-1.135 -1.203,-1.135 h -4.639 c -1.3,0 -1.986,-0.639 -1.986,-1.854 0,0 0,-2.115 0,-2.457 0.379,0 8.369,0 8.369,0 1.346,0 2.142,-0.821 2.142,-2.212 v -3.256 c 0,-2.149 -1.822,-3.894 -4.054,-3.894 h -5.273 z m -1.183,4.265 c 0,-0.907 0.713,-1.619 1.621,-1.619 h 4.396 c 0.906,0 1.613,0.712 1.613,1.619 0,0 0,2.28 0,2.622 -0.364,0 -7.258,0 -7.631,0 10e-4,-0.342 10e-4,-2.622 10e-4,-2.622 z"
         id="path21"
         style="fill:#73ba25;fill-opacity:1"
         inkscape:connector-curvature="0" />
      <path
         d="m 546.997,404.271 c -1.573,0 -2.76,0.564 -3.718,1.021 -0.596,0.28 -1.105,0.525 -1.521,0.525 -0.183,0 -0.257,-0.023 -0.399,-0.269 l -0.331,-0.604 c -0.19,-0.382 -0.513,-0.575 -0.949,-0.575 h -0.465 c -0.562,0 -0.972,0.438 -0.972,1.037 v 14.077 c 0,0.667 0.527,1.203 1.206,1.203 h 0.465 c 0.667,0 1.211,-0.542 1.211,-1.203 v -10.65 c 0,-0.998 0.815,-1.818 1.813,-1.818 h 3.999 c 1.001,0 1.816,0.82 1.816,1.818 v 10.65 c 0,0.667 0.53,1.203 1.203,1.203 h 0.47 c 0.667,0 1.209,-0.542 1.209,-1.203 v -11.055 c 0,-2.526 -1.776,-4.157 -4.535,-4.157 h -0.502 z"
         id="path23"
         style="fill:#73ba25;fill-opacity:1"
         inkscape:connector-curvature="0" />
    </g>
    <g
       id="g25"
       style="fill:#73ba25;fill-opacity:1"
       transform="matrix(1.7538571,0,0,1.7538571,-611.60275,-134.12571)">
      <path
         d="m 667.456,415.229 c 1.218,0 2.188,0.99 2.188,2.229 0,1.257 -0.971,2.237 -2.198,2.237 -1.218,0 -2.208,-0.98 -2.208,-2.237 0,-1.238 0.99,-2.229 2.208,-2.229 h 0.01 z m -0.01,0.346 c -0.98,0 -1.782,0.842 -1.782,1.882 0,1.06 0.802,1.891 1.792,1.891 0.99,0.011 1.782,-0.831 1.782,-1.881 0,-1.05 -0.792,-1.892 -1.782,-1.892 h -0.01 z m -0.416,3.179 h -0.396 v -2.485 c 0.208,-0.03 0.406,-0.06 0.703,-0.06 0.377,0 0.624,0.079 0.772,0.188 0.149,0.108 0.229,0.276 0.229,0.515 0,0.326 -0.218,0.524 -0.485,0.604 v 0.021 c 0.218,0.039 0.366,0.237 0.416,0.604 0.06,0.387 0.118,0.535 0.158,0.614 h -0.416 c -0.06,-0.079 -0.119,-0.307 -0.168,-0.634 -0.06,-0.316 -0.218,-0.436 -0.535,-0.436 h -0.277 v 1.069 z m 0,-1.377 h 0.287 c 0.327,0 0.604,-0.118 0.604,-0.426 0,-0.218 -0.158,-0.436 -0.604,-0.436 -0.129,0 -0.218,0.01 -0.287,0.021 v 0.841 z"
         id="path27"
         style="fill:#73ba25;fill-opacity:1"
         inkscape:connector-curvature="0" />
    </g>
  </g>
</svg>
