<?xml version="1.0" ?><svg enable-background="new 0 0 515.91 728.5" height="512" id="Layer_1" version="1.1" viewBox="0 0 512.00003 512" width="512" xml:space="preserve" xmlns="http://www.w3.org/2000/svg" xmlns:cc="http://creativecommons.org/ns#" xmlns:dc="http://purl.org/dc/elements/1.1/" xmlns:inkscape="http://www.inkscape.org/namespaces/inkscape" xmlns:rdf="http://www.w3.org/1999/02/22-rdf-syntax-ns#" xmlns:sodipodi="http://sodipodi.sourceforge.net/DTD/sodipodi-0.dtd" xmlns:svg="http://www.w3.org/2000/svg"><defs id="defs7"/><g id="g3884" transform="translate(176.54641,129.60506)"><path d="m -733.62329,72.267944 c 0,203.804876 -165.21649,369.021366 -369.02141,369.021366 -203.8048,0 -369.0213,-165.21649 -369.0213,-369.021366 0,-203.804874 165.2165,-369.021364 369.0213,-369.021364 203.80492,0 369.02141,165.21649 369.02141,369.021364 z" id="path4882" style="fill:#932279;fill-opacity:1;fill-rule:nonzero;stroke:none" transform="matrix(0.69372682,0,0,0.69372682,844.38777,76.260731)"/><path d="m 79.453566,-46.081289 -40.35818,40.3581502 25.45938,0 2.99242,0 0,2.9924 0,97.5943198 11.90638,11.906389 12.30219,-12.302179 0,-97.5626598 0,-3.00826 3.00832,0 24.667684,0 -39.978194,-39.9781602 z m 18.30291,45.97888015 0,88.56948985 58.122784,-58.12275 -30.44679,-30.44673985 -27.675994,0 z m 36.178264,0 28.32518,28.32511985 2.12161,2.12162 -2.12161,2.12162 -64.503444,64.50344 0,11.019739 11.257254,0 64.39257,-64.376789 2.12162,-2.12161 2.12162,2.12161 28.1985,28.19847 0,-71.91321985 -71.9133,0 z m -180.289784,0.37999 0,70.94743985 27.486,-27.48601 2.12161,-2.12161 2.12162,2.12161 64.26594,64.250119 11.90637,0 0,-10.623879 -64.8992499,-64.8993 -2.12161,-2.12162 2.12161,-2.12162 27.9451599,-27.94512985 -70.94745,0 z m 79.44974,0 -30.0667699,30.06674985 58.5185699,58.51859 0,-88.58533985 -28.4518,0 z M 175.52792,49.977201 117.516,107.98913 l 88.33204,0 0,-27.691859 -30.32012,-30.32007 z m -192.275354,0.12666 -29.60761,29.60762 0,28.277649 87.47704,0 -57.86943,-57.885269 z m -35.6083,35.60833 -40.690699,40.690629 40.690699,40.69073 0,-26.07689 0,-3.00825 3.00826,0 97.56263,0 11.46306,-11.46306 -12.55553,-12.55556 -96.47016,0 -3.00826,0 0,-3.00821 0,-25.269389 z m 264.204434,0.58579 0,24.683599 0,3.00821 -2.99245,0 -97.34097,0 -12.413034,12.41303 11.605584,11.60559 98.14842,0 2.99245,0 0,3.00825 0,25.49105 40.1049,-40.10489 -40.1049,-40.104839 z m -258.203744,57.711089 0,29.08514 29.73428,29.73429 58.83523,-58.81943 -88.56951,0 z m 97.07181,0 -65.20008,65.18428 -2.13745,2.12162 -2.12161,-2.12162 -27.61267,-27.61267 0,70.51997 70.28246,0 -27.2643399,-27.26434 -2.12161,-2.12161 2.12161,-2.12161 65.0734199,-65.07343 0,-11.51058 -11.01973,0 z m 47.03971,0 0,12.60302 63.980924,63.98099 2.12167,2.12162 -2.12167,2.12161 -27.26429,27.26434 71.37493,0 0,-71.10582 -28.1985,28.19852 -2.12162,2.12162 -2.12162,-2.12162 -65.20008,-65.18428 -10.449744,0 z m 18.952014,0 58.81943,58.81943 30.32012,-30.32013 0,-28.4993 -89.13955,0 z m -37.508244,2.53327 -11.46306,11.46305 0,97.10352 0,2.99245 -3.00826,0 -26.31436,0 40.78568,40.76981 40.769884,-40.76981 -25.206054,0 -3.00832,0 0,-2.99245 0,-96.01102 -12.55551,-12.55555 z m -17.46375,17.46376 -58.7085699,58.7086 29.3859499,29.38595 29.32262,0 0,-88.09455 z m 36.01998,1.09246 0,87.00209 28.214314,0 29.38595,-29.38595 -57.600264,-57.61614 z" id="path21524" style="fill:#ffffff;fill-opacity:1;stroke:none"/></g></svg>