<?xml version="1.0" ?><svg enable-background="new 0 0 515.91 728.5" height="512" id="Layer_1" version="1.1" viewBox="0 0 512.00003 512" width="512" xml:space="preserve" xmlns="http://www.w3.org/2000/svg" xmlns:cc="http://creativecommons.org/ns#" xmlns:dc="http://purl.org/dc/elements/1.1/" xmlns:inkscape="http://www.inkscape.org/namespaces/inkscape" xmlns:rdf="http://www.w3.org/1999/02/22-rdf-syntax-ns#" xmlns:sodipodi="http://sodipodi.sourceforge.net/DTD/sodipodi-0.dtd" xmlns:svg="http://www.w3.org/2000/svg"><defs id="defs7"/><g id="g6920" transform="translate(-353.24162,-137.45047)"><path d="m -733.62329,72.267944 c 0,203.804876 -165.21649,369.021366 -369.02141,369.021366 -203.8048,0 -369.0213,-165.21649 -369.0213,-369.021366 0,-203.804874 165.2165,-369.021364 369.0213,-369.021364 203.80492,0 369.02141,165.21649 369.02141,369.021364 z" id="path5072" style="fill:#f47421;fill-opacity:1;fill-rule:nonzero;stroke:none" transform="matrix(0.69372682,0,0,0.69372682,1374.1758,343.31626)"/><path d="m 679.53691,276.15745 c 15.8235,9.1376 36.0519,3.718 45.1836,-12.1017 9.1369,-15.8249 3.721,-36.0519 -12.1039,-45.1881 -15.8227,-9.1339 -36.0489,-3.715 -45.1859,12.1107 -9.1331,15.8189 -3.715,36.0452 12.1062,45.1791 z m -67.7138,213.94022 c -14.54901,0 -28.33661,-3.2344 -40.71241,-8.992 l -22.9898,41.1975 c 19.2035,9.5086 40.822,14.881 63.70221,14.881 13.3055,0 26.1716,-1.8436 38.3979,-5.2297 2.1636,-13.2882 10.0539,-25.5355 22.6332,-32.7995 12.5575,-7.2498 27.0907,-7.9684 39.67,-3.2141 24.4647,-24.05551 40.3835,-56.78441 42.7009,-93.23211 l -47.1533,-0.6834 c -4.339,49.3702 -45.7574,88.07531 -96.2487,88.07531 z m 0,-193.29562 c 50.4913,0 91.9097,38.71251 96.2487,88.07751 l 47.1533,-0.691 c -2.3204,-36.4446 -18.24,-69.1729 -42.7076,-93.22751 -12.5778,4.7513 -27.1089,4.0312 -39.6678,-3.2201 -12.5779,-7.261 -20.4667,-19.5068 -22.6301,-32.7966 -12.2249,-3.3823 -25.091,-5.2282 -38.3965,-5.2282 -22.88021,0 -44.49721,5.3709 -63.69921,14.8833 l 22.9883,41.1922 c 12.3743,-5.7575 26.1619,-8.992 40.71091,-8.992 z m -96.64671,96.64811 c 0,-32.6981 16.25,-61.5785 41.0954,-79.0667 l -24.1876,-40.52021 c -28.9532,19.3462 -50.4928,48.91811 -59.439,83.55671 10.4519,8.5182 17.1294,21.4902 17.1294,36.0333 0,14.5407 -6.6798,27.5128 -17.1308,36.0294 8.9447,34.6409 30.4843,64.21201 59.4389,83.55821 l 24.1891,-40.52161 c -24.8454,-17.4861 -41.0954,-46.3664 -41.0954,-79.0691 z m 164.36501,117.29051 c -15.8257,9.137 -21.2438,29.3625 -12.1091,45.1814 9.1368,15.8249 29.3616,21.2468 45.1873,12.1099 15.8204,-9.1346 21.2408,-29.3616 12.1039,-45.1851 -9.1332,-15.8174 -29.3617,-21.2393 -45.1821,-12.1062 z M 443.31069,360.36896 c -18.2761,0 -33.0857,14.8074 -33.0857,33.0843 0,18.2715 14.8096,33.0811 33.0857,33.0811 18.26991,0 33.08111,-14.8096 33.08111,-33.0811 0,-18.2769 -14.8112,-33.0843 -33.08111,-33.0843" id="circle-of-friends" style="fill:#ffffff;fill-opacity:1;fill-rule:nonzero;stroke:none"/></g></svg>