<?xml version="1.0" encoding="UTF-8"?><svg id="Layer_1" xmlns="http://www.w3.org/2000/svg" viewBox="0 0 164.49 176.26"><defs><style>.cls-1{fill:#fff;}</style></defs><path class="cls-1" d="M163.5,151.05c-7.34-14.43-19.23-22.89-36.38-32.51,10.62-12.56,17.04-28.77,17.04-46.46C144.16,32.33,111.82,0,72.08,0S0,32.33,0,72.08s32.33,72.08,72.08,72.08c13.27,0,25.71-3.62,36.41-9.91,10.87,22.85,19.67,35.23,27.55,39.87,15.21,8.97,32.83-12.53,27.47-23.07Zm-91.43-22.89c-30.92,0-56.08-25.16-56.08-56.08S41.16,16,72.08,16s56.08,25.16,56.08,56.08-25.16,56.08-56.08,56.08Z"/><path class="cls-1" d="M23.92,65.5c4.16-7.73,8.74-14.25,14.14-20.9,5.43-6.61,10.82-12.51,17.47-18.23-16.78,1.38-33.86,22.41-31.61,39.13Z"/><path class="cls-1" d="M118.7,81.26c-3.91,7.05-7.89,12.98-13.04,18.87-5.1,5.94-10.58,10.87-16.3,16.54,16.22-1.67,31.96-18.74,29.34-35.41Z"/></svg>